<svg xmlns="http://www.w3.org/2000/svg" width="1922.5" height="1244"><g transform="translate(2380.5 482)"><path d="M-2500-500H0v1500h-2500z" fill="#fff"></path><path d="M-800 40c22.1 0 40 17.9 40 40s-17.9 40-40 40h-80c-22.1 0-40-17.9-40-40s17.9-40 40-40z" stroke="#000" stroke-width="4" fill="#fff"></path><use></use><path d="M-800 320c22.1 0 40 17.9 40 40s-17.9 40-40 40h-80c-22.1 0-40-17.9-40-40s17.9-40 40-40z" stroke="#000" stroke-width="4" fill="#fff"></path><use></use><path d="M-800 180c22.1 0 40 17.9 40 40s-17.9 40-40 40h-80c-22.1 0-40-17.9-40-40s17.9-40 40-40z" stroke="#000" stroke-width="4" fill="#fff"></path><use></use><path d="M-500 680c22.1 0 40 17.9 40 40s-17.9 40-40 40h-80c-22.1 0-40-17.9-40-40s17.9-40 40-40z" stroke="#000" stroke-width="4" fill="#fff"></path><use></use><path d="M-1080 570c22.1 0 40 17.9 40 40s-17.9 40-40 40h-80c-22.1 0-40-17.9-40-40s17.9-40 40-40z" stroke="#000" stroke-width="2" fill="#fff"></path><use></use><path d="M-1201.5 610h-43.43a6 6 0 0 1-6-6V278.43" stroke="#3a414a" fill="none"></path><path d="M-1201 610l.02.48h-.53v-.96h.53z" stroke="#3a414a" stroke-width=".05" fill="#3a414a"></path><path d="M-1250.93 263.67l4.63 14.26h-9.27z" stroke="#3a414a" fill="#3a414a"></path><path d="M-1400 556a6 6 0 0 1 6-6h148a6 6 0 0 1 6 6v18a6 6 0 0 1-6 6h-148a6 6 0 0 1-6-6z" fill="none"></path><use></use><path d="M-500 460c22.1 0 40 17.9 40 40s-17.9 40-40 40h-80c-22.1 0-40-17.9-40-40s17.9-40 40-40z" stroke="#000" stroke-width="4" fill="#fff"></path><use></use><path d="M-1060 576a6 6 0 0 1 6-6h148a6 6 0 0 1 6 6v18a6 6 0 0 1-6 6h-148a6 6 0 0 1-6-6z" fill="none"></path><use></use><path d="M-720 570c22.1 0 40 17.9 40 40s-17.9 40-40 40h-120c-22.1 0-40-17.9-40-40s17.9-40 40-40z" stroke="#000" stroke-width="2" fill="#fff"></path><use></use><path d="M-1038.5 610h141.12" stroke="#3a414a" fill="none"></path><path d="M-1038.5 610.48h-.53l.03-.47-.02-.48h.53z" stroke="#3a414a" stroke-width=".05" fill="#3a414a"></path><path d="M-882.62 610l-14.26 4.63v-9.26z" stroke="#3a414a" fill="#3a414a"></path><path d="M-622.5 720H-774a6 6 0 0 1-6-6v-46.62" stroke="#3a414a" fill="none"></path><path d="M-622 719.97l.02.5h-.53v-.95h.53z" stroke="#3a414a" stroke-width=".05" fill="#3a414a"></path><path d="M-780 652.62l4.63 14.26h-9.26z" stroke="#3a414a" fill="#3a414a"></path><path d="M-622.5 500H-774a6 6 0 0 0-6 6v46.62" stroke="#3a414a" fill="none"></path><path d="M-622 499.97l.02.5h-.53v-.95h.53z" stroke="#3a414a" stroke-width=".05" fill="#3a414a"></path><path d="M-780 567.38l-4.63-14.26h9.26z" stroke="#3a414a" fill="#3a414a"></path><path d="M-780 477.86a6 6 0 0 1 6-6h148a6 6 0 0 1 6 6v18a6 6 0 0 1-6 6h-148a6 6 0 0 1-6-6z" fill="none"></path><use></use><path d="M-800 726.24a6 6 0 0 1 6-6h148a6 6 0 0 1 6 6v18a6 6 0 0 1-6 6h-148a6 6 0 0 1-6-6z" fill="none"></path><use></use><path d="M-1140 181.05c22.1 0 40 17.9 40 40s-17.9 40-40 40h-120c-22.1 0-40-17.9-40-40s17.9-40 40-40z" stroke="#000" stroke-width="2" fill="#fff"></path><use></use><path d="M-1840 181.05c22.1 0 40 17.9 40 40s-17.9 40-40 40h-80c-22.1 0-40-17.9-40-40s17.9-40 40-40z" stroke="#000" stroke-width="4" fill="#fff"></path><use></use><path d="M-922.5 80H-1194a6 6 0 0 0-6 6v77.66" stroke="#3a414a" fill="none"></path><path d="M-922 79.97l.02.5h-.53v-.94h.53z" stroke="#3a414a" stroke-width=".05" fill="#3a414a"></path><path d="M-1200 178.43l-4.63-14.27h9.27z" stroke="#3a414a" fill="#3a414a"></path><path d="M-922.5 360H-1194a6 6 0 0 1-6-6v-75.57" stroke="#3a414a" fill="none"></path><path d="M-922 359.97l.02.5h-.53v-.95h.53z" stroke="#3a414a" stroke-width=".05" fill="#3a414a"></path><path d="M-1200 263.67l4.63 14.26h-9.27z" stroke="#3a414a" fill="#3a414a"></path><path d="M-922.5 220h-160.15" stroke="#3a414a" fill="none"></path><path d="M-922 219.97l.02.5h-.53v-.94h.53z" stroke="#3a414a" stroke-width=".05" fill="#3a414a"></path><path d="M-1097.42 220l14.27-4.63v9.26z" stroke="#3a414a" fill="#3a414a"></path><path d="M-1100 46a6 6 0 0 1 6-6h148a6 6 0 0 1 6 6v18a6 6 0 0 1-6 6h-148a6 6 0 0 1-6-6z" fill="none"></path><use></use><path d="M-1100 367.86a6 6 0 0 1 6-6h148a6 6 0 0 1 6 6v18a6 6 0 0 1-6 6h-148a6 6 0 0 1-6-6z" fill="none"></path><use></use><path d="M-1080 187.05a6 6 0 0 1 6-6h148a6 6 0 0 1 6 6v18a6 6 0 0 1-6 6h-148a6 6 0 0 1-6-6z" fill="none"></path><use></use><path d="M-1500 181.05c22.1 0 40 17.9 40 40s-17.9 40-40 40h-80c-22.1 0-40-17.9-40-40s17.9-40 40-40z" stroke="#000" stroke-width="2" fill="#fff"></path><use></use><path d="M-1458.5 221.05h141.1" stroke="#3a414a" fill="none"></path><path d="M-1458.5 221.52h-.53l.03-.46-.02-.5h.53z" stroke="#3a414a" stroke-width=".05" fill="#3a414a"></path><path d="M-1302.62 221.05l-14.27 4.63v-9.27z" stroke="#3a414a" fill="#3a414a"></path><path d="M-1621.5 221.05h-160.12" stroke="#3a414a" fill="none"></path><path d="M-1621 221.03l.02.5h-.53v-.96h.53z" stroke="#3a414a" stroke-width=".05" fill="#3a414a"></path><path d="M-1796.38 221.05l14.27-4.64-.02 9.28z" stroke="#3a414a" fill="#3a414a"></path><path d="M-780-120c22.1 0 40 17.9 40 40s-17.9 40-40 40h-120c-22.1 0-40-17.9-40-40s17.9-40 40-40z" stroke="#000" stroke-width="4" fill="#fff"></path><use></use><path d="M-1780 187.05a6 6 0 0 1 6-6h148a6 6 0 0 1 6 6v18a6 6 0 0 1-6 6h-148a6 6 0 0 1-6-6z" fill="none"></path><use></use><path d="M-1840 337.5c22.1 0 40 17.9 40 40s-17.9 40-40 40h-80c-22.1 0-40-17.9-40-40s17.9-40 40-40z" stroke="#000" stroke-width="2" fill="#fff"></path><use></use><path d="M-1880 336v-56.57" stroke="#3a414a" fill="none"></path><path d="M-1879.53 336.5h-.94v-.5h.94z" stroke="#3a414a" stroke-width=".05" fill="#3a414a"></path><path d="M-1880 264.67l4.63 14.26h-9.27z" stroke="#3a414a" fill="#3a414a"></path><path d="M-1840 500c22.1 0 40 17.9 40 40s-17.9 40-40 40h-80c-22.1 0-40-17.9-40-40s17.9-40 40-40z" stroke="#000" stroke-width="4" fill="#fff"></path><use></use><path d="M-1880 419v62.62" stroke="#3a414a" fill="none"></path><path d="M-1879.53 419.02h-.94v-.5h.94z" stroke="#3a414a" stroke-width=".05" fill="#3a414a"></path><path d="M-1880 496.38l-4.63-14.26h9.27z" stroke="#3a414a" fill="#3a414a"></path><path d="M-2020 298.1a6 6 0 0 1 6-6h148a6 6 0 0 1 6 6v18a6 6 0 0 1-6 6h-148a6 6 0 0 1-6-6z" fill="none"></path><use></use><path d="M-2020 449.75a6 6 0 0 1 6-6h148a6 6 0 0 1 6 6v18a6 6 0 0 1-6 6h-148a6 6 0 0 1-6-6z" fill="none"></path><use></use><path d="M-1837.73-24.67c22.1 0 40 17.9 40 40s-17.9 40-40 40h-80c-22.1 0-40-17.9-40-40s17.9-40 40-40z" stroke="#000" stroke-width="2" fill="#fff"></path><use></use><path d="M-1837.73-180c22.1 0 40 17.9 40 40s-17.9 40-40 40h-80c-22.1 0-40-17.9-40-40s17.9-40 40-40z" stroke="#000" stroke-width="4" fill="#fff"></path><use></use><path d="M-2016.86-74a6 6 0 0 1 6-6h148a6 6 0 0 1 6 6v18a6 6 0 0 1-6 6h-148a6 6 0 0 1-6-6z" fill="none"></path><use></use><path d="M-1877.73-26.17v-55.45" stroke="#3a414a" fill="none"></path><path d="M-1877.25-25.67h-.95v-.5h.95z" stroke="#3a414a" stroke-width=".05" fill="#3a414a"></path><path d="M-1877.73-96.38l4.64 14.26h-9.26z" stroke="#3a414a" fill="#3a414a"></path><path d="M-780-480c22.1 0 40 17.9 40 40s-17.9 40-40 40h-120c-22.1 0-40-17.9-40-40s17.9-40 40-40z" stroke="#000" stroke-width="4" fill="#fff"></path><use></use><path d="M-1181.33-240c22.1 0 40 17.9 40 40s-17.9 40-40 40h-120c-22.1 0-40-17.9-40-40s17.9-40 40-40z" stroke="#000" stroke-width="4" fill="#fff"></path><use></use><path d="M-1460 187.05a6 6 0 0 1 6-6h148a6 6 0 0 1 6 6v18a6 6 0 0 1-6 6h-148a6 6 0 0 1-6-6z" fill="none"></path><use></use><path d="M-840-14a6 6 0 0 1 6-6h148a6 6 0 0 1 6 6V4a6 6 0 0 1-6 6h-148a6 6 0 0 1-6-6z" fill="none"></path><use></use><path d="M-840 402.5V436a6 6 0 0 0 6 6h318a6 6 0 0 0 6-6V-74a6 6 0 0 0-6-6h-205.62" stroke="#3a414a" fill="none"></path><path d="M-839.52 402.5h-.96v-.5h.96z" stroke="#3a414a" stroke-width=".05" fill="#3a414a"></path><path d="M-736.38-80l14.26-4.64v9.28z" stroke="#3a414a" fill="#3a414a"></path><path d="M-1380-104a6 6 0 0 1 6-6h148a6 6 0 0 1 6 6v18a6 6 0 0 1-6 6h-148a6 6 0 0 1-6-6z" fill="none"></path><use></use><path d="M-2220 418.95V534a6 6 0 0 0 6 6h235.62" stroke="#3a414a" fill="none"></path><path d="M-2219.53 418.97h-.94v-.52h.94z" stroke="#3a414a" stroke-width=".05" fill="#3a414a"></path><path d="M-1963.62 540l-14.27 4.63.02-9.26z" stroke="#3a414a" fill="#3a414a"></path><path d="M-2220 336.95V201.5a6 6 0 0 1 6-6h244.34" stroke="#3a414a" fill="none"></path><path d="M-2219.53 337.45h-.94v-.5h.94z" stroke="#3a414a" stroke-width=".05" fill="#3a414a"></path><path d="M-1954.9 195.5l-14.26 4.64v-9.27z" stroke="#3a414a" fill="#3a414a"></path><path d="M-2100 337.95c22.1 0 40 17.9 40 40s-17.9 40-40 40h-240c-22.1 0-40-17.9-40-40s17.9-40 40-40z" stroke="#000" fill="#fff"></path><use></use><path d="M-2218.8 556a6 6 0 0 1 6-6h148a6 6 0 0 1 6 6v18a6 6 0 0 1-6 6h-148a6 6 0 0 1-6-6z" fill="none"></path><use></use><path d="M-2218.8 170.56a6 6 0 0 1 6-6h148a6 6 0 0 1 6 6v18a6 6 0 0 1-6 6h-148a6 6 0 0 1-6-6z" fill="none"></path><use></use><path d="M-1607.48-40c22.1 0 40 17.9 40 40s-17.9 40-40 40h-97.5c-22.1 0-40-17.9-40-40s17.9-40 40-40z" stroke="#000" stroke-width="2" fill="#fff"></path><use></use><path d="M-1697.68 41.5V114a6 6 0 0 1-6 6h-137.6a6 6 0 0 0-6 6v36.66" stroke="#3a414a" fill="none"></path><path d="M-1697.2 41.5h-.95V41h.95z" stroke="#3a414a" stroke-width=".05" fill="#3a414a"></path><path d="M-1847.27 177.43l-4.63-14.27h9.27z" stroke="#3a414a" fill="#3a414a"></path><path d="M-1620.34 41.5v39.33a.17.17 0 0 0 .17.17.17.17 0 0 1 .17.17v58.18a6 6 0 0 1-6 6h-186a6 6 0 0 0-6 6v17.6" stroke="#3a414a" fill="none"></path><path d="M-1619.86 41.5h-.95V41h.94z" stroke="#3a414a" stroke-width=".05" fill="#3a414a"></path><path d="M-1818 183.73l-4.65-14.27h9.27z" stroke="#3a414a" fill="#3a414a"></path><path d="M-1740 126a6 6 0 0 1 6-6h148a6 6 0 0 1 6 6v18a6 6 0 0 1-6 6h-148a6 6 0 0 1-6-6z" fill="none"></path><use></use><path d="M-1840 101a6 6 0 0 1 6-6h148a6 6 0 0 1 6 6v18a6 6 0 0 1-6 6h-148a6 6 0 0 1-6-6z" fill="none"></path><use></use><path d="M-680 419.75a6 6 0 0 1 6-6h148a6 6 0 0 1 6 6v18a6 6 0 0 1-6 6h-148a6 6 0 0 1-6-6z" fill="none"></path><use></use><path d="M-1380 96a6 6 0 0 1 6-6h148a6 6 0 0 1 6 6v18a6 6 0 0 1-6 6h-148a6 6 0 0 1-6-6z" fill="none"></path><use></use><path d="M-1600 320c22.1 0 40 17.9 40 40s-17.9 40-40 40h-80c-22.1 0-40-17.9-40-40s17.9-40 40-40z" stroke="#000" stroke-width="2" fill="#fff"></path><use></use><path d="M-1640 318.5V292a6 6 0 0 0-6-6h-160.77a6 6 0 0 1-6-6v-10.62" stroke="#3a414a" fill="none"></path><path d="M-1639.53 319h-.94v-.5h.94z" stroke="#3a414a" stroke-width=".05" fill="#3a414a"></path><path d="M-1812.77 254.6l4.64 14.28h-9.27z" stroke="#3a414a" fill="#3a414a"></path><path d="M-1640 401.5v53.87" stroke="#3a414a" fill="none"></path><path d="M-1639.53 401.5h-.94v-.5h.94z" stroke="#3a414a" stroke-width=".05" fill="#3a414a"></path><path d="M-1640 470.13l-4.63-14.26h9.27z" stroke="#3a414a" fill="#3a414a"></path><path d="M-1770 415.9a6 6 0 0 1 6-6h148a6 6 0 0 1 6 6v18a6 6 0 0 1-6 6h-148a6 6 0 0 1-6-6z" fill="none"></path><use></use><path d="M-1820 290.28a6 6 0 0 1 6-6h148a6 6 0 0 1 6 6v18a6 6 0 0 1-6 6h-148a6 6 0 0 1-6-6z" fill="none"></path><use></use><path d="M-1600 473.75c22.1 0 40 17.9 40 40s-17.9 40-40 40h-80c-22.1 0-40-17.9-40-40s17.9-40 40-40z" stroke="#000" stroke-width="4" fill="#fff"></path><use></use><path d="M-2120 5.52c22.1 0 40 17.9 40 40s-17.9 40-40 40h-100c-22.1 0-40-17.9-40-40s17.9-40 40-40z" stroke="#000" stroke-width="2" fill="#fff"></path><use></use><path d="M-2170 87.02V154a6 6 0 0 0 6 6h218.46a6 6 0 0 1 6 6v1.56" stroke="#3a414a" fill="none"></path><path d="M-2169.53 87.04h-.94v-.52h.94z" stroke="#3a414a" stroke-width=".05" fill="#3a414a"></path><path d="M-1939.54 182.32l-4.64-14.26h9.27z" stroke="#3a414a" fill="#3a414a"></path><path d="M-2195.52 134.17a6 6 0 0 1 6-6h148a6 6 0 0 1 6 6v18a6 6 0 0 1-6 6h-148a6 6 0 0 1-6-6z" fill="none"></path><use></use><path d="M-2120-155.52c22.1 0 40 17.9 40 40s-17.9 40-40 40h-100c-22.1 0-40-17.9-40-40s17.9-40 40-40z" stroke="#000" stroke-width="4" fill="#fff"></path><use></use><path d="M-2170 4.02v-61.16" stroke="#3a414a" fill="none"></path><path d="M-2169.53 4.52h-.94v-.5h.94z" stroke="#3a414a" stroke-width=".05" fill="#3a414a"></path><path d="M-2170-71.9l4.64 14.26h-9.28z" stroke="#3a414a" fill="#3a414a"></path><path d="M-2200-44a6 6 0 0 1 6-6h148a6 6 0 0 1 6 6v18a6 6 0 0 1-6 6h-148a6 6 0 0 1-6-6z" fill="none"></path><use></use><path d="M-1201.33-40c22.1 0 40 17.9 40 40s-17.9 40-40 40h-80c-22.1 0-40-17.9-40-40s17.9-40 40-40z" stroke="#000" stroke-width="2" fill="#fff"></path><use></use><path d="M-840 37.5v-59.12" stroke="#3a414a" fill="none"></path><path d="M-839.52 38h-.96v-.5h.96z" stroke="#3a414a" stroke-width=".05" fill="#3a414a"></path><path d="M-840-36.38l4.63 14.26h-9.26z" stroke="#3a414a" fill="#3a414a"></path><path d="M-1877.73 56.83v105.83" stroke="#3a414a" fill="none"></path><path d="M-1877.25 56.84h-.95v-.5h.95z" stroke="#3a414a" stroke-width=".05" fill="#3a414a"></path><path d="M-1877.73 177.43l-4.63-14.27h9.27z" stroke="#3a414a" fill="#3a414a"></path><path d="M-1241.33 41.5v122.16" stroke="#3a414a" fill="none"></path><path d="M-1240.85 41.5h-.95V41h.95z" stroke="#3a414a" stroke-width=".05" fill="#3a414a"></path><path d="M-1241.33 178.43l-4.63-14.27h9.27z" stroke="#3a414a" fill="#3a414a"></path><path d="M-1241.33-41.5v-100.12" stroke="#3a414a" fill="none"></path><path d="M-1240.85-41h-.95v-.5h.95z" stroke="#3a414a" stroke-width=".05" fill="#3a414a"></path><path d="M-1241.33-156.38l4.64 14.26h-9.26z" stroke="#3a414a" fill="#3a414a"></path><path d="M-780-300c22.1 0 40 17.9 40 40s-17.9 40-40 40h-120c-22.1 0-40-17.9-40-40s17.9-40 40-40z" stroke="#000" stroke-width="2" fill="#fff"></path><use></use><path d="M-840-218.5v80.12" stroke="#3a414a" fill="none"></path><path d="M-839.52-218.5h-.96v-.5h.96z" stroke="#3a414a" stroke-width=".05" fill="#3a414a"></path><path d="M-840-123.62l-4.63-14.26h9.26z" stroke="#3a414a" fill="#3a414a"></path><path d="M-840-301.5v-80.12" stroke="#3a414a" fill="none"></path><path d="M-839.52-301h-.96v-.5h.96z" stroke="#3a414a" stroke-width=".05" fill="#3a414a"></path><path d="M-840-396.38l4.63 14.26h-9.26z" stroke="#3a414a" fill="#3a414a"></path><path d="M-980-184a6 6 0 0 1 6-6h148a6 6 0 0 1 6 6v18a6 6 0 0 1-6 6h-148a6 6 0 0 1-6-6z" fill="none"></path><use></use><path d="M-980-367.45a6 6 0 0 1 6-6h148a6 6 0 0 1 6 6v18a6 6 0 0 1-6 6h-148a6 6 0 0 1-6-6z" fill="none"></path><use></use><defs><path d="M295 13c-75 0-135-60-135-135s60-135 135-135 135 60 135 135S370 13 295 13zm0-809c-75 0-135-60-135-135s60-135 135-135 135 60 135 135-60 135-135 135" id="C"></path><path d="M458 0L52-1490h194c108 439 233 855 324 1313 92-459 221-873 331-1313h216c110 438 234 854 330 1307 92-455 216-869 323-1307h196L1558 0h-221l-256-944c-26-95-50-200-73-331-22 122-44 223-73 331L680 0H458" id="D"></path><path d="M613 24c-304 0-509-231-509-576 0-350 205-580 509-580 305 0 511 230 511 580 0 345-206 576-511 576zm0-161c226 0 329-195 329-415 0-222-103-419-329-419-223 0-326 196-326 419 0 220 103 415 326 415" id="E"></path><path d="M158 0v-1118h174v172h12c41-113 157-188 290-188 26 0 70 2 91 3v181c-11-2-60-10-108-10-161 0-279 109-279 260V0H158" id="F"></path><path d="M158 0v-1490h180v865h22l478-493h223L593-638 1096 0H865L456-523 338-412V0H158" id="G"></path><path d="M538 24C308 24 148-78 108-271l171-41c32 123 123 178 257 178 156 0 256-77 256-169 0-77-54-128-164-154l-186-44c-203-48-300-148-300-305 0-192 176-326 414-326 230 0 351 112 402 269l-163 42c-31-80-94-158-238-158-133 0-233 69-233 162 0 83 57 129 188 160l169 40c203 48 298 149 298 302 0 196-179 339-441 339" id="H"></path><path d="M338-670V0H158v-1490h180v566c73-149 190-208 336-208 226 0 379 139 379 422V0H872v-695c0-172-96-275-252-275-161 0-282 109-282 300" id="I"></path><path d="M158 418v-1536h174v179h20c37-59 106-193 324-193 279 0 474 222 474 576 0 356-194 580-473 580-213 0-288-135-325-197h-14v591H158zm492-555c209 0 317-186 317-421 0-232-105-413-317-413-206 0-314 166-314 413 0 249 111 421 314 421" id="J"></path><g id="a"><use></use><use></use><use></use><use></use><use></use><use></use><use></use><use></use><use></use></g><path d="M783 20c-382 0-661-292-661-764 0-473 279-766 661-766 302 0 548 182 601 489h-190c-42-204-217-313-411-313-268 0-476 208-476 590 0 381 209 588 476 588 195 0 369-110 411-313h190c-52 303-296 489-601 489" id="K"></path><path d="M338-670V0H158v-1118h173l1 207c72-158 192-221 342-221 226 0 378 139 378 422V0H872v-695c0-172-96-275-252-275-161 0-282 109-282 300" id="L"></path><path d="M678-1118v154H420V0H240v-964H20v-154h220v-149c0-194 155-293 318-293 85 0 141 18 168 30l-50 154c-19-6-47-17-97-17-111 0-159 58-159 166v109h258" id="M"></path><path d="M628 24c-324 0-524-230-524-574 0-343 198-582 503-582 237 0 487 146 487 559v75H286c9 234 145 362 343 362 132 0 231-58 273-172l174 48C1024-91 857 24 628 24zM287-650h624c-17-190-120-322-304-322-192 0-309 151-320 322" id="N"></path><path d="M613 24c-304 0-509-231-509-576 0-350 205-580 509-580 216 0 392 114 453 309l-173 49c-33-115-133-197-280-197-223 0-326 196-326 419 0 220 103 415 326 415 150 0 252-85 285-206l172 49C1010-95 832 24 613 24" id="O"></path><g id="b"><use></use><use></use><use></use><use></use><use></use><use></use><use></use><use></use><use></use><use></use><use></use></g><path d="M545 20c-263 0-445-160-445-446v-80h190v80c0 182 102 279 255 279 152 0 254-97 254-279v-1064h190v1064c0 286-181 446-444 446" id="P"></path><path d="M537 14c-226 0-379-139-379-422v-710h180v695c0 172 97 275 253 275 160 0 281-109 281-300v-670h181V0H879v-209C806-46 684 14 537 14" id="Q"></path><path d="M471 26C259 26 90-98 90-318c0-256 228-303 435-329 202-27 287-16 287-108 0-139-79-219-234-219-161 0-248 86-283 164l-173-57c86-203 278-265 451-265 150 0 419 46 419 395V0H815v-152h-12C765-73 660 26 471 26zm31-159c199 0 310-134 310-271v-155c-30 35-226 55-295 64-131 17-246 59-246 186 0 116 97 176 231 176" id="R"></path><path d="M338-1490V0H158v-1490h180" id="S"></path><g id="c"><use></use><use></use><use></use><use></use><use></use><use></use><use></use><use></use></g><path d="M180 0v-1490h270l367 940c28 72 75 218 110 339 35-117 81-264 110-339l362-940h271V0h-187c2-448-5-837 7-1287-157 497-311 829-483 1287H842C666-458 514-784 354-1284c12 438 5 843 7 1284H180" id="T"></path><path d="M611 442c-248 0-391-105-460-228l146-94c47 65 117 165 314 165 178 0 307-82 307-266v-224h-17C863-141 792-18 576-18c-268 0-472-195-472-546 0-346 197-568 476-568 216 0 288 133 326 193h17v-179h175V29c0 289-215 413-487 413zm-5-620c203 0 314-146 314-390 0-237-108-403-314-403-213 0-319 180-319 403 0 230 109 390 319 390" id="U"></path><path d="M126 0v-134l627-806v-11H146v-167h839v143L376-178v11h629V0H126" id="V"></path><path d="M158 0v-1118h180V0H158zm91-1301c-68 0-125-53-125-119s57-119 125-119c69 0 126 53 126 119s-57 119-126 119" id="W"></path><g id="d"><use></use><use></use><use></use><use></use><use></use><use></use><use></use><use></use><use></use></g><path d="M677 24c-213 0-288-135-325-197h-20V0H158v-1490h180v551h14c37-59 106-193 324-193 279 0 474 222 474 576 0 356-194 580-473 580zm-27-161c209 0 317-186 317-421 0-232-105-413-317-413-206 0-314 166-314 413 0 249 111 421 314 421" id="X"></path><path d="M577 24c-279 0-473-224-473-580 0-354 195-576 474-576 218 0 287 134 324 193h14v-551h180V0H922v-173h-20C865-111 790 24 577 24zm27-161c203 0 314-172 314-421 0-247-108-413-314-413-212 0-317 181-317 413 0 235 108 421 317 421" id="Y"></path><path d="M52 0l541-1490h220L1361 0h-200l-149-416H398L254 0H52zm404-582h497c-103-290-145-390-251-756-108 377-145 460-246 756" id="Z"></path><path d="M598-1118v154H368v674c0 100 37 144 132 144 23 0 62-6 92-12L629-6c-37 13-88 20-134 20-193 0-307-107-307-290v-688H20v-154h168v-266h180v266h230" id="aa"></path><g id="e"><use></use><use></use><use></use><use></use><use></use><use></use><use></use><use></use><use></use><use></use><use></use></g><path d="M158 0v-1118h175l1 205c55-151 181-225 313-225 147 0 245 90 285 228 53-141 190-228 352-228 194 0 352 125 352 384V0h-181v-749c0-161-105-225-225-225-151 0-243 103-243 244V0H807v-767c0-124-93-207-219-207-131 0-250 92-250 270V0H158" id="ab"></path><g id="f"><use></use><use></use><use></use><use></use><use></use><use></use><use></use><use></use><use></use><use></use><use></use></g><path d="M180 0v-1490h510c348 0 508 209 508 474 0 266-160 477-507 477H370V0H180zm190-706h312c236 0 327-133 327-310 0-176-91-307-329-307H370v617" id="ac"></path><g id="g"><use></use><use></use><use></use><use></use><use></use><use></use><use></use><use></use><use></use><use></use><use></use></g><g id="h"><use></use><use></use><use></use><use></use><use></use><use></use><use></use><use></use><use></use><use></use></g><g id="i"><use></use><use></use><use></use><use></use><use></use><use></use><use></use><use></use><use></use><use></use><use></use><use></use><use></use><use></use><use></use><use></use><use></use><use></use></g><path d="M784 20c-382 0-662-292-662-764 0-473 280-766 662-766s660 293 660 766c0 472-278 764-660 764zm0-176c266 0 475-207 475-588 0-383-209-590-475-590-268 0-477 208-477 590 0 380 209 588 477 588" id="ad"></path><g id="j"><use></use><use></use><use></use><use></use><use></use><use></use><use></use><use></use><use></use><use></use><use></use><use></use><use></use><use></use><use></use></g><g id="k"><use></use><use></use><use></use><use></use><use></use><use></use><use></use><use></use><use></use><use></use><use></use><use></use><use></use><use></use><use></use><use></use></g><g id="l"><use></use><use></use><use></use><use></use><use></use><use></use></g><g id="m"><use></use><use></use><use></use><use></use><use></use><use></use><use></use><use></use><use></use></g><path d="M180 0v-1490h908v168H370v486h669v168H370v500h727V0H180" id="ae"></path><path d="M481 0L54-1118h197c107 314 236 620 325 951 87-331 217-637 324-951h197L670 0H481" id="af"></path><g id="n"><use></use><use></use><use></use><use></use><use></use><use></use></g><path d="M409 0L70-1118h191c89 329 165 560 243 925 75-353 154-601 240-925h192c85 325 161 564 235 922 77-354 157-598 244-922h191L1267 0h-179c-86-307-176-590-250-913C763-588 675-308 588 0H409" id="ag"></path><g id="o"><use></use><use></use><use></use><use></use><use></use><use></use><use></use></g><g id="p"><use></use><use></use><use></use><use></use><use></use><use></use><use></use></g><g id="q"><use></use><use></use><use></use><use></use><use></use><use></use><use></use><use></use></g><path d="M180 0v-1490h510c348 0 508 194 508 460 0 198-88 351-276 417L1256 0h-220L726-579c-117 2-238 0-356 1V0H180zm190-747h312c235 0 327-108 327-283 0-177-92-293-329-293H370v576" id="ah"></path><g id="r"><use></use><use></use><use></use><use></use><use></use><use></use><use></use><use></use><use></use></g><g id="s"><use></use><use></use><use></use><use></use><use></use><use></use></g><path d="M140 405l46-156c120 36 205 19 263-150l32-93L54-1118h197c107 313 237 620 324 950 87-331 219-637 326-950h196L606 167c-68 178-176 259-334 259-64 0-113-12-132-21" id="ai"></path><g id="t"><use></use><use></use><use></use><use></use><use></use></g><path d="M370-1490V0H180v-1490h190" id="aj"></path><g id="u"><use></use><use></use><use></use><use></use><use></use><use></use><use></use><use></use><use></use><use></use><use></use><use></use><use></use><use></use><use></use><use></use><use></use><use></use><use></use><use></use><use></use><use></use><use></use><use></use></g><g id="v"><use></use><use></use><use></use><use></use><use></use><use></use></g><g id="w"><use></use><use></use><use></use><use></use><use></use><use></use><use></use><use></use><use></use><use></use></g><path d="M180 0v-1490h190c0 262 1 526-3 784 217-279 467-523 702-784h249L716-845 1319 0h-225L585-716 370-489V0H180" id="ak"></path><g id="x"><use></use><use></use><use></use><use></use><use></use><use></use><use></use><use></use></g><path d="M180 0v-1490h528c311 0 458 177 458 395 0 191-114 278-244 313v14c139 9 302 137 302 371 0 225-148 397-499 397H180zm190-168h350c232 0 321-102 321-231 0-149-120-277-311-277H370v508zm0-668h328c160 0 286-101 286-255 0-129-87-231-280-231H370v486" id="al"></path><g id="y"><use></use><use></use><use></use><use></use><use></use><use></use><use></use><use></use><use></use><use></use><use></use><use></use><use></use></g><g id="z"><use></use><use></use><use></use><use></use><use></use><use></use><use></use><use></use><use></use></g><path d="M600 0v-610L52-1490h220l295 481c50 82 90 150 130 243 40-96 80-164 128-243l294-481h219L790-610V0H600" id="am"></path><g id="A"><use></use><use></use><use></use><use></use><use></use><use></use><use></use><use></use></g><path d="M600 0L52-1490h200c166 485 304 806 458 1336 156-533 285-846 449-1336h202L819 0H600" id="an"></path><g id="B"><use></use><use></use><use></use><use></use><use></use><use></use><use></use><use></use><use></use></g></defs></g></svg>